<?xml version="1.0" encoding="UTF-8"?>
<svg id="Layer_1" xmlns="http://www.w3.org/2000/svg" version="1.1" xmlns:xlink="http://www.w3.org/1999/xlink" viewBox="0 0 247.1 241.2">
  <!-- Generator: Adobe Illustrator 29.2.1, SVG Export Plug-In . SVG Version: 2.1.0 Build 116)  -->
  <defs>
    <style>
      .st0 {
        fill: url(#linear-gradient);
        isolation: isolate;
      }

      .st1 {
        fill: #fff;
      }
    </style>
    <linearGradient id="linear-gradient" x1="13.2" y1="197.9" x2="233.9" y2="43.3" gradientUnits="userSpaceOnUse">
      <stop offset="0" stop-color="#0ebabf"/>
      <stop offset="1" stop-color="#5ab949"/>
    </linearGradient>
  </defs>
  <rect class="st0" x="5.8" y="3.1" width="235.6" height="235" rx="74.2" ry="74.2"/>
  <g>
    <polygon class="st1" points="52 196.1 121.4 129.6 89.9 115.2 195.2 45.1 126.9 111.9 159.4 127.1 52 196.1"/>
    <g>
      <path class="st1" d="M158.4,52.8c-1.8,6.5-7.7,9.6-9.5,10.6-2.3,1.2-4.7,1.9-9,3.1-2.6.7-4.8,1.2-6.3,1.5-.5,0-1.2.1-1.4-.2-.5-.8,1.3-2.8,1.7-3.2,2-2.2,3.7-2.8,6.2-4.3,3.1-1.9,5.2-3.1,6.4-5.5,1.3-2.4,1.9-6.4-.4-9-2.8-3.2-8.1-2-8.9-1.8-5.9,1.4-8.2,7.3-8.5,7.9-.7,1.2-3.2,4.3-5.7,6.6-1,1.3-2.6,2.1-4.4,2.1-5.7,0-11.6.8-17.3,2.3-11.4,3-22.3,8.5-30.4,17.1-4.2,4.3-7.1,9.4-9.7,14.8-9.4,19.1-9.5,42.6,1.3,61.1,1.5,2.7,3.2,5.3,5.2,7.6,1.3,1.5-1,3.6-2.4,2-12.7-14.9-18-35.3-15-54.5,1.5-10.1,5.2-19.7,10.1-28.7.4-.7,1.6-2.5,2.1-3.2,8.7-12.3,22-20.7,36.1-25.4,5-1.7,10.2-3,15.6-3.7.1,0,.2,0,.3,0,1.9-.3,6.5-1,7.8-2.4,1.3-1.5,1.7-2.9,2.1-4.2,0,0,1.2-3.4,4.2-6.8,3.8-4.4,10.1-4.9,11.3-5,8.9-.5,14.5,6.1,14.9,6.5.7.9,5.7,7.2,3.7,14.6h0Z"/>
      <path class="st1" d="M84.9,187.4c2.1-6.4,8.3-9.2,10.1-10,2.3-1.1,4.8-1.6,9.2-2.6,2.6-.6,4.9-1,6.4-1.2.6,0,1.2,0,1.4.3.5.8-1.5,2.7-1.8,3.1-2.1,2.1-3.9,2.6-6.4,3.9-3.2,1.7-5.4,2.8-6.7,5.1-1.4,2.3-2.2,6.3-.2,9.1,2.6,3.4,7.9,2.4,8.8,2.3,6-1,8.6-6.9,9-7.4.8-1.2,3.5-4.2,6-6.3,1.1-1.2,2.7-1.9,4.5-1.8,5.7.3,11.6-.1,17.4-1.3,11.5-2.3,22.8-7.2,31.4-15.3,4.4-4,7.7-9,10.5-14.2,10.5-18.5,11.9-42,2.2-61.1-1.4-2.8-2.9-5.5-4.7-7.9-1.2-1.6,1.2-3.5,2.5-1.9,11.8,15.6,15.9,36.2,11.9,55.3-2.1,10-6.3,19.4-11.7,28-.5.7-1.8,2.4-2.3,3-9.4,11.8-23.2,19.4-37.5,23.3-5.1,1.4-10.4,2.4-15.8,2.8-.1,0-.2,0-.4,0-1.9.2-6.6.6-7.9,1.9-1.4,1.4-1.8,2.8-2.4,4,0,0-1.4,3.3-4.5,6.5-4.1,4.2-10.4,4.3-11.6,4.3-8.9,0-14.1-6.9-14.5-7.4-.7-.9-5.3-7.5-2.9-14.8h0Z"/>
    </g>
  </g>
</svg>